<?xml version="1.0" encoding="UTF-8"?>
<svg version="1.1" xmlns="http://www.w3.org/2000/svg" width="286" height="285">
<path d="M0 0 C1.10794922 -0.00128906 2.21589844 -0.00257812 3.35742188 -0.00390625 C4.51951172 -0.00003906 5.68160156 0.00382812 6.87890625 0.0078125 C8.03712891 0.00394531 9.19535156 0.00007813 10.38867188 -0.00390625 C12.0525293 -0.00197266 12.0525293 -0.00197266 13.75 0 C14.76892334 0.00112793 15.78784668 0.00225586 16.83764648 0.00341797 C19.44140625 0.1328125 19.44140625 0.1328125 22.44140625 1.1328125 C22.44140625 3.1128125 22.44140625 5.0928125 22.44140625 7.1328125 C30.69140625 7.1328125 38.94140625 7.1328125 47.44140625 7.1328125 C47.46452357 27.32502998 47.48238461 47.51724374 47.49321842 67.7094717 C47.49838173 77.08439521 47.50542509 86.45931037 47.5168457 95.83422852 C47.52679148 104.00235772 47.53325942 112.17048087 47.53549474 120.33861595 C47.53680203 124.66632305 47.53988902 128.99401284 47.54713631 133.3217144 C47.55389485 137.39030978 47.55602355 141.45888062 47.55451393 145.52748108 C47.55479033 147.02512813 47.55679644 148.52277595 47.56061172 150.02041817 C47.56554631 152.05632568 47.56380443 154.0922462 47.56166077 156.12815857 C47.56304346 157.84131083 47.56304346 157.84131083 47.56445408 159.58907223 C47.44140625 162.1328125 47.44140625 162.1328125 46.44140625 163.1328125 C43.85501587 163.22789071 41.29542065 163.25837626 38.70874023 163.24633789 C37.49420166 163.24655693 37.49420166 163.24655693 36.25512695 163.2467804 C33.56589117 163.24608104 30.87672376 163.2382876 28.1875 163.23046875 C26.32804909 163.22860465 24.46859769 163.22718071 22.60914612 163.22618103 C17.70511529 163.22235521 12.80111389 163.21252438 7.89709473 163.20147705 C2.89689533 163.19126431 -2.10330881 163.18668371 -7.10351562 163.18164062 C-16.92188796 163.17090217 -26.74023841 163.15382498 -36.55859375 163.1328125 C-36.63083129 161.02605426 -36.68273638 158.91859096 -36.72583008 156.81103516 C-36.75687332 155.63755524 -36.78791656 154.46407532 -36.81990051 153.2550354 C-36.55859375 150.1328125 -36.55859375 150.1328125 -33.8828125 147.28125 C-32.13891602 146.35009766 -32.13891602 146.35009766 -30.24609375 145.5078125 C-28.95067045 144.80588493 -27.66164376 144.09203804 -26.37890625 143.3671875 C-25.7334082 143.00818359 -25.08791016 142.64917969 -24.42285156 142.27929688 C-11.0000545 134.02452278 -3.1908087 118.65507259 1.44140625 104.1328125 C2.43140625 99.5128125 3.42140625 94.8928125 4.44140625 90.1328125 C-7.43859375 90.1328125 -19.31859375 90.1328125 -31.55859375 90.1328125 C-31.55859375 86.8328125 -31.55859375 83.5328125 -31.55859375 80.1328125 C-16.37859375 80.1328125 -1.19859375 80.1328125 14.44140625 80.1328125 C16.82958686 101.62643802 10.14553442 120.22253752 -2.80859375 137.3203125 C-3.46347778 138.18668335 -3.46347778 138.18668335 -4.1315918 139.07055664 C-5.2228149 140.46615903 -6.38529613 141.80546681 -7.55859375 143.1328125 C-8.21859375 143.1328125 -8.87859375 143.1328125 -9.55859375 143.1328125 C-10.21859375 144.4528125 -10.87859375 145.7728125 -11.55859375 147.1328125 C-12.21859375 147.1328125 -12.87859375 147.1328125 -13.55859375 147.1328125 C-13.88859375 148.1228125 -14.21859375 149.1128125 -14.55859375 150.1328125 C-15.21859375 150.4628125 -15.87859375 150.7928125 -16.55859375 151.1328125 C0.93140625 151.4628125 18.42140625 151.7928125 36.44140625 152.1328125 C36.44140625 107.5828125 36.44140625 63.0328125 36.44140625 17.1328125 C18.62140625 17.4628125 0.80140625 17.7928125 -17.55859375 18.1328125 C-13.59859375 21.7628125 -9.63859375 25.3928125 -5.55859375 29.1328125 C-3.55859375 32.1328125 -3.55859375 32.1328125 -3.68359375 34.1328125 C-4.83998185 36.7759853 -6.03396303 37.76229868 -8.55859375 39.1328125 C-12.37685767 38.77215513 -13.84868247 36.99469153 -16.30859375 34.1953125 C-29.05530884 21.07184721 -46.67593615 13.15787761 -64.94360352 12.89135742 C-73.89643878 12.86343715 -82.03856599 13.06510571 -90.55859375 16.1328125 C-91.52539062 16.46152344 -92.4921875 16.79023437 -93.48828125 17.12890625 C-100.69649617 19.83432718 -106.57142354 23.64216756 -112.74609375 28.14453125 C-115.55859375 30.1328125 -115.55859375 30.1328125 -117.80859375 31.15234375 C-120.05933269 32.19809978 -120.05933269 32.19809978 -121.55859375 36.1328125 C-123.86859375 39.1028125 -126.17859375 42.0728125 -128.55859375 45.1328125 C-95.88859375 45.4628125 -63.21859375 45.7928125 -29.55859375 46.1328125 C-29.55859375 49.4328125 -29.55859375 52.7328125 -29.55859375 56.1328125 C-64.53859375 56.1328125 -99.51859375 56.1328125 -135.55859375 56.1328125 C-139.13742849 70.62284539 -139.13742849 70.62284539 -139.99609375 84.9453125 C-139.97518677 86.41738159 -139.97518677 86.41738159 -139.95385742 87.91918945 C-139.77371098 94.98597637 -139.04563094 101.47110574 -136.55859375 108.1328125 C-136.171875 109.17824219 -135.78515625 110.22367187 -135.38671875 111.30078125 C-133.25829015 116.69411422 -130.90917281 121.41718272 -127.55859375 126.1328125 C-127.55859375 126.7928125 -127.55859375 127.4528125 -127.55859375 128.1328125 C-126.89859375 128.1328125 -126.23859375 128.1328125 -125.55859375 128.1328125 C-124.33203125 129.63671875 -124.33203125 129.63671875 -122.93359375 131.6953125 C-118.68555436 137.47426824 -114.11374579 141.86550797 -107.7109375 145.18359375 C-107.02894287 145.548479 -106.34694824 145.91336426 -105.64428711 146.28930664 C-104.27800922 147.00563096 -102.89163707 147.68513162 -101.48657227 148.32202148 C-99.55859375 149.3359375 -99.55859375 149.3359375 -96.55859375 152.1328125 C-96.55859375 155.7628125 -96.55859375 159.3928125 -96.55859375 163.1328125 C-125.26859375 163.1328125 -153.97859375 163.1328125 -183.55859375 163.1328125 C-183.55859375 111.6528125 -183.55859375 60.1728125 -183.55859375 7.1328125 C-142.62109375 6.8828125 -142.62109375 6.8828125 -129.80102539 6.83496094 C-125.93466022 6.80165097 -125.93466022 6.80165097 -122.06834412 6.76324463 C-120.37580328 6.74884225 -118.68318733 6.74186726 -116.99058533 6.74127197 C-106.24122619 6.73104156 -96.46153832 5.87219407 -86.06469727 3.05276489 C-81.85375311 1.9478722 -77.83412881 1.4010949 -73.49609375 1.2578125 C-72.75987793 1.2259082 -72.02366211 1.19400391 -71.26513672 1.16113281 C-61.62376911 0.8762883 -52.31737234 2.0837861 -43.03515625 4.66796875 C-35.81851049 6.51371898 -28.72655655 6.68984582 -21.30859375 6.8203125 C-19.96611485 6.85359039 -18.62366564 6.88808912 -17.28125 6.92382812 C-14.04044913 7.00543102 -10.79988905 7.07486362 -7.55859375 7.1328125 C-7.55859375 5.1528125 -7.55859375 3.1728125 -7.55859375 1.1328125 C-4.92691927 -0.18302474 -2.94383587 0.00326238 0 0 Z M-173.55859375 17.1328125 C-173.55859375 61.6828125 -173.55859375 106.2328125 -173.55859375 152.1328125 C-155.40859375 152.1328125 -137.25859375 152.1328125 -118.55859375 152.1328125 C-122.04045045 148.64777958 -122.04045045 148.64777958 -125.54296875 145.18359375 C-126.125625 144.60996094 -126.70828125 144.03632813 -127.30859375 143.4453125 C-127.9015625 142.86394531 -128.49453125 142.28257812 -129.10546875 141.68359375 C-130.55859375 140.1328125 -130.55859375 140.1328125 -131.55859375 138.1328125 C-132.21859375 138.1328125 -132.87859375 138.1328125 -133.55859375 138.1328125 C-133.78546875 137.4521875 -134.01234375 136.7715625 -134.24609375 136.0703125 C-135.50393728 132.97229144 -135.50393728 132.97229144 -137.87109375 130.0078125 C-149.97043414 113.4601852 -152.38536877 91.23859962 -150.1328125 71.37890625 C-146.59401469 52.64281726 -136.80044268 32.9884246 -121.74609375 20.8203125 C-120.66741379 19.94402878 -119.59945946 19.05369369 -118.55859375 18.1328125 C-118.55859375 17.8028125 -118.55859375 17.4728125 -118.55859375 17.1328125 C-136.70859375 17.1328125 -154.85859375 17.1328125 -173.55859375 17.1328125 Z " fill="#98724B" transform="translate(213.55859375,35.8671875)"/>
<path d="M0 0 C0.33 -0.33 0.66 -0.66 1 -1 C2.99958364 -1.04080783 5.00045254 -1.04254356 7 -1 C7.04967599 3.30499734 7.08584945 7.60983993 7.10986328 11.91503906 C7.11988105 13.37763376 7.13349912 14.84020863 7.15087891 16.30273438 C7.17531439 18.41281039 7.18652537 20.52262012 7.1953125 22.6328125 C7.20578613 23.90012207 7.21625977 25.16743164 7.22705078 26.47314453 C6.89990337 31.55483427 5.9644745 34.88324005 2.625 38.75 C-1.80211139 42.54466691 -4.94521986 43.40680603 -10.68359375 43.24609375 C-14.4399218 42.84702348 -16.72936726 41.96237965 -20 40 C-23 35.25806452 -23 35.25806452 -23 32 C-20.1875 31.75 -20.1875 31.75 -17 32 C-16.54238281 32.65613281 -16.08476562 33.31226563 -15.61328125 33.98828125 C-14.16771784 36.22758885 -14.16771784 36.22758885 -11.625 36.49609375 C-10.75875 36.47675781 -9.8925 36.45742188 -9 36.4375 C-8.13375 36.43621094 -7.2675 36.43492187 -6.375 36.43359375 C-3.58131195 35.92356188 -2.64052142 35.29349212 -1 33 C-1 32.01 -1 31.02 -1 30 C-1.99 30.495 -1.99 30.495 -3 31 C-4.9981051 31.09649939 -6.9995718 31.12980872 -9 31.125 C-10.60875 31.12886719 -10.60875 31.12886719 -12.25 31.1328125 C-15 31 -15 31 -17 30 C-17 29.34 -17 28.68 -17 28 C-17.99 27.67 -18.98 27.34 -20 27 C-24.59439873 21.18403172 -23.65675299 13.99026748 -23 7 C-22.0478778 3.27534587 -20.57561232 0.97065922 -17.19921875 -1.109375 C-11.26964259 -3.73450774 -5.61867328 -3.37120397 0 0 Z M-15.5625 4.75 C-17.78525964 9.77536963 -17.76234164 14.59634307 -17 20 C-15.19196596 23.07365786 -14.13960536 24.43019732 -11 26 C-8.12693772 26.50095023 -8.12693772 26.50095023 -5 26 C-1.89835231 23.44975635 -0.27433584 21.82300753 1 18 C1.29352007 12.71663876 1.10569094 8.61308635 -2.296875 4.390625 C-5.01336863 2.17257056 -7.44603952 2.45478682 -10.8359375 2.609375 C-13.2062889 2.88517297 -13.2062889 2.88517297 -15.5625 4.75 Z " fill="#876543" transform="translate(180,233)"/>
<path d="M0 0 C3.24971257 2.67623388 4.84528835 5.46651301 5.7421875 9.58203125 C6.46236581 17.90772902 5.98096937 23.14245974 0.75 29.75 C-3.25653633 32.72714917 -7.95788038 32.31075722 -12.75390625 32.31640625 C-16.49875584 31.63680276 -18.15979347 30.36909303 -20.875 27.75 C-24.14968094 22.83797859 -25.18200918 17.59194605 -24.875 11.75 C-23.51363058 7.01796726 -21.62807679 3.01228983 -17.875 -0.25 C-11.89230234 -3.09890365 -5.97430704 -2.5975248 0 0 Z M-16.375 6.3125 C-18.67150424 11.57532221 -19.44597684 14.94691524 -17.6875 20.5 C-15.50744895 24.42086862 -15.50744895 24.42086862 -11.875 26.75 C-7.90361498 27.42598043 -6.40109063 27.11241799 -3.0625 24.8125 C-0.20559014 20.81282619 0.43337817 17.62570896 0.125 12.75 C-0.83061943 9.16473277 -2.22179244 6.40320756 -4.875 3.75 C-9.65836391 2.7896335 -12.89841624 2.74900165 -16.375 6.3125 Z " fill="#866443" transform="translate(75.875,232.25)"/>
<path d="M0 0 C4.27134852 3.44080853 5.99011709 5.62318337 6.63671875 11.0703125 C6.855007 18.16091699 6.5969417 23.10713902 2.25 28.8125 C1.59 28.8125 0.93 28.8125 0.25 28.8125 C0.25 29.4725 0.25 30.1325 0.25 30.8125 C-4.19677042 33.03588521 -9.92243756 32.31757344 -14.75 31.8125 C-18.91534472 30.143242 -20.90537436 26.95517082 -22.625 22.9375 C-24.52723748 16.94939149 -24.32067839 11.56592306 -21.75 5.8125 C-19.39919929 2.41689897 -17.62788862 0.26119863 -13.9375 -1.625 C-8.8772811 -2.51797981 -4.71762294 -2.03715536 0 0 Z M-15.25 5.75 C-17.49964904 10.34303346 -18.48898165 14.82836799 -17.23828125 19.87890625 C-15.89071124 23.29417629 -14.84103663 24.75180892 -11.75 26.8125 C-8.33461856 27.39619443 -8.33461856 27.39619443 -4.75 26.8125 C-1.61891216 24.22594918 1.02593729 22.00572918 1.453125 17.82421875 C1.55154414 12.94426961 1.38997734 9.79785585 -1.75 5.8125 C-4.13125912 3.43124088 -4.85707538 3.46728359 -8.125 3.375 C-11.52970528 3.47352845 -12.47414634 3.59871341 -15.25 5.75 Z " fill="#896744" transform="translate(138.75,232.1875)"/>
<path d="M0 0 C19.8 0 39.6 0 60 0 C60 45.54 60 91.08 60 138 C40.2 138 20.4 138 0 138 C0 137.34 0 136.68 0 136 C18.75608834 131.31097792 38.66998086 135.64203668 58 136 C58 91.45 58 46.9 58 1 C40.18 1.33 22.36 1.66 4 2 C4.99 3.485 4.99 3.485 6 5 C2.83884224 3.63016497 2.0072908 3.0109362 0 0 Z " fill="#5B4935" transform="translate(192,52)"/>
<path d="M0 0 C0 1.65 0 3.3 0 5 C-1.65 5.33 -3.3 5.66 -5 6 C-5.33 8.31 -5.66 10.62 -6 13 C-4.02 13 -2.04 13 0 13 C0 14.32 0 15.64 0 17 C-1.98 17 -3.96 17 -6 17 C-6 25.91 -6 34.82 -6 44 C-8.475 44.495 -8.475 44.495 -11 45 C-12 44 -12 44 -12.11352539 41.40795898 C-12.10567017 39.71908569 -12.10567017 39.71908569 -12.09765625 37.99609375 C-12.09443359 36.78115234 -12.09121094 35.56621094 -12.08789062 34.31445312 C-12.07951172 33.03505859 -12.07113281 31.75566406 -12.0625 30.4375 C-12.05798828 29.15423828 -12.05347656 27.87097656 -12.04882812 26.54882812 C-12.03699545 23.36583978 -12.02051068 20.18294238 -12 17 C-13.32 17 -14.64 17 -16 17 C-16 15.35 -16 13.7 -16 12 C-15.01 12 -14.02 12 -13 12 C-12.89042969 11.38511719 -12.78085937 10.77023438 -12.66796875 10.13671875 C-12.50941406 9.32847656 -12.35085937 8.52023438 -12.1875 7.6875 C-12.03667969 6.88699219 -11.88585937 6.08648437 -11.73046875 5.26171875 C-10.90621167 2.70960726 -10.09274359 1.64683212 -8 0 C-4.71023192 -1.09658936 -3.28696233 -0.79953138 0 0 Z " fill="#846443" transform="translate(43,219)"/>
<path d="M0 0 C1.65 0 3.3 0 5 0 C5.33 2.64 5.66 5.28 6 8 C7.65 8.33 9.3 8.66 11 9 C10.67 10.32 10.34 11.64 10 13 C8.35 13 6.7 13 5 13 C5.33 20.26 5.66 27.52 6 35 C7.65 35.33 9.3 35.66 11 36 C11 37.65 11 39.3 11 41 C9.54207116 41.05399736 8.08357288 41.09279177 6.625 41.125 C5.81289062 41.14820313 5.00078125 41.17140625 4.1640625 41.1953125 C2 41 2 41 0 39 C-0.22705078 36.38623047 -0.22705078 36.38623047 -0.1953125 33.1171875 C-0.18886719 31.95058594 -0.18242187 30.78398437 -0.17578125 29.58203125 C-0.15902344 28.35871094 -0.14226562 27.13539063 -0.125 25.875 C-0.11597656 24.64394531 -0.10695312 23.41289062 -0.09765625 22.14453125 C-0.07402548 19.09616185 -0.04108054 16.04817618 0 13 C-1.65 12.67 -3.3 12.34 -5 12 C-5 11.01 -5 10.02 -5 9 C-3.68 8.67 -2.36 8.34 -1 8 C-0.67 5.36 -0.34 2.72 0 0 Z " fill="#936E4A" transform="translate(250,223)"/>
<path d="M0 0 C1.65 0 3.3 0 5 0 C5 2.97 5 5.94 5 9 C6.98 9 8.96 9 11 9 C11 10.32 11 11.64 11 13 C9.02 13 7.04 13 5 13 C5.33 20.59 5.66 28.18 6 36 C7.65 36 9.3 36 11 36 C11 37.65 11 39.3 11 41 C9.54257537 41.08096803 8.08387193 41.13917774 6.625 41.1875 C5.81289062 41.22230469 5.00078125 41.25710938 4.1640625 41.29296875 C3.44992188 41.19628906 2.73578125 41.09960938 2 41 C-0.29755922 37.55366118 -0.23643976 36.28931609 -0.1953125 32.23828125 C-0.18886719 31.12001953 -0.18242188 30.00175781 -0.17578125 28.84960938 C-0.15902344 27.68236328 -0.14226562 26.51511719 -0.125 25.3125 C-0.11597656 24.13365234 -0.10695313 22.95480469 -0.09765625 21.74023438 C-0.07406423 18.82661974 -0.0411454 15.91341108 0 13 C-1.32 13 -2.64 13 -4 13 C-4 11.68 -4 10.36 -4 9 C-3.01 8.67 -2.02 8.34 -1 8 C-0.67 5.36 -0.34 2.72 0 0 Z " fill="#926D49" transform="translate(95,223)"/>
<path d="M0 0 C0 1.98 0 3.96 0 6 C-1.7015625 6.680625 -1.7015625 6.680625 -3.4375 7.375 C-7.04721692 8.57095806 -7.04721692 8.57095806 -8 11 C-8.15222973 12.66565749 -8.24917215 14.33656496 -8.31640625 16.0078125 C-8.35830078 16.99394531 -8.40019531 17.98007813 -8.44335938 18.99609375 C-8.48267578 20.02863281 -8.52199219 21.06117188 -8.5625 22.125 C-8.60568359 23.16527344 -8.64886719 24.20554688 -8.69335938 25.27734375 C-8.7996288 27.85142528 -8.90166583 30.42560508 -9 33 C-10.65614657 33.38218767 -12.32457024 33.71395102 -14 34 C-15 33 -15 33 -15.11352539 30.04077148 C-15.10828857 28.74727783 -15.10305176 27.45378418 -15.09765625 26.12109375 C-15.0962413 25.4344313 -15.09482635 24.74776886 -15.09336853 24.04029846 C-15.08775479 21.83932199 -15.07520007 19.63844591 -15.0625 17.4375 C-15.05748676 15.94856917 -15.05292355 14.45963676 -15.04882812 12.97070312 C-15.03778093 9.31376925 -15.02050713 5.65689442 -15 2 C-13.90171875 2.020625 -12.8034375 2.04125 -11.671875 2.0625 C-7.36608533 1.98920996 -4.20619287 0 0 0 Z " fill="#96724C" transform="translate(216,230)"/>
<path d="M0 0 C2.97 0.495 2.97 0.495 6 1 C6 9.91 6 18.82 6 28 C4.02 28.33 2.04 28.66 0 29 C-2.60269085 26.39730915 -2.25725649 25.28043207 -2.265625 21.66015625 C-2.26820313 20.59732422 -2.27078125 19.53449219 -2.2734375 18.43945312 C-2.26570312 17.32505859 -2.25796875 16.21066406 -2.25 15.0625 C-2.25773438 13.95197266 -2.26546875 12.84144531 -2.2734375 11.69726562 C-2.27085937 10.63314453 -2.26828125 9.56902344 -2.265625 8.47265625 C-2.26336914 7.49562744 -2.26111328 6.51859863 -2.25878906 5.51196289 C-2 3 -2 3 0 0 Z " fill="#896644" transform="translate(221,3)"/>
<path d="M0 0 C1.98 0 3.96 0 6 0 C6 10.23 6 20.46 6 31 C4.35 31.33 2.7 31.66 1 32 C0 31 0 31 -0.11352539 28.04077148 C-0.10828857 26.74727783 -0.10305176 25.45378418 -0.09765625 24.12109375 C-0.0962413 23.4344313 -0.09482635 22.74776886 -0.09336853 22.04029846 C-0.08775479 19.83932199 -0.07520007 17.63844591 -0.0625 15.4375 C-0.05748676 13.94856917 -0.05292355 12.45963676 -0.04882812 10.97070312 C-0.03778093 7.31376925 -0.02050713 3.65689442 0 0 Z " fill="#A0784F" transform="translate(228,232)"/>
<path d="M0 0 C2.45703125 2.29296875 2.45703125 2.29296875 4.8125 5.1875 C5.60269531 6.12980469 6.39289063 7.07210938 7.20703125 8.04296875 C9.22211731 11.3663242 9.37860757 13.18566998 9 17 C6.296875 17.796875 6.296875 17.796875 3 18 C0.515625 16.015625 0.515625 16.015625 -1.75 13.25 C-2.50796875 12.34765625 -3.2659375 11.4453125 -4.046875 10.515625 C-8.03596878 5.37767221 -8.03596878 5.37767221 -7.75 2.375 C-7.5025 1.59125 -7.255 0.8075 -7 0 C-4.19358829 -1.40320586 -2.96299089 -0.98189625 0 0 Z " fill="#8B6846" transform="translate(202,14)"/>
<path d="M0 0 C2 0.8125 2 0.8125 3.25 2.875 C3.4975 3.514375 3.745 4.15375 4 4.8125 C2.7260411 6.85083424 1.38938077 8.85102126 0 10.8125 C-0.66 10.8125 -1.32 10.8125 -2 10.8125 C-2.2475 11.575625 -2.495 12.33875 -2.75 13.125 C-4.14716768 16.12891051 -5.06443741 17.30278209 -8 18.8125 C-10.75 18.5 -10.75 18.5 -13 17.8125 C-13.40264453 13.92985636 -13.24254169 12.19028613 -11.1015625 8.85546875 C-9.87566406 7.44201172 -9.87566406 7.44201172 -8.625 6 C-7.81289062 5.04480469 -7.00078125 4.08960938 -6.1640625 3.10546875 C-2.97036095 -0.27847134 -2.97036095 -0.27847134 0 0 Z " fill="#886644" transform="translate(247,13.1875)"/>
<path d="M0 0 C2.8125 -0.25 2.8125 -0.25 6 0 C6.433125 0.66 6.86625 1.32 7.3125 2 C8.88413897 4.31714373 8.88413897 4.31714373 11.91796875 4.390625 C13.53638672 4.32101562 13.53638672 4.32101562 15.1875 4.25 C16.27417969 4.21390625 17.36085937 4.1778125 18.48046875 4.140625 C19.31191406 4.09421875 20.14335937 4.0478125 21 4 C20.67 4.66 20.34 5.32 20 6 C17.71484375 6.4140625 17.71484375 6.4140625 14.9375 6.625 C14.01839844 6.69976562 13.09929687 6.77453125 12.15234375 6.8515625 C11.08693359 6.92503906 11.08693359 6.92503906 10 7 C10 7.66 10 8.32 10 9 C16.435 8.505 16.435 8.505 23 8 C22.67 8.66 22.34 9.32 22 10 C16.80606175 11.73131275 11.30786901 11.74965475 6.125 9.875 C2.45299362 7.67179617 1.4401252 5.98152261 0 2 C0 1.34 0 0.68 0 0 Z " fill="#795A3E" transform="translate(157,265)"/>
<path d="M0 0 C0.33 0 0.66 0 1 0 C1.33 9.9 1.66 19.8 2 30 C2.99 30 3.98 30 5 30 C5 20.1 5 10.2 5 0 C5.33 0 5.66 0 6 0 C6 10.23 6 20.46 6 31 C4.35 31.33 2.7 31.66 1 32 C0 31 0 31 -0.11352539 28.04077148 C-0.10828857 26.74727783 -0.10305176 25.45378418 -0.09765625 24.12109375 C-0.0962413 23.4344313 -0.09482635 22.74776886 -0.09336853 22.04029846 C-0.08775479 19.83932199 -0.07520007 17.63844591 -0.0625 15.4375 C-0.05748676 13.94856917 -0.05292355 12.45963676 -0.04882812 10.97070312 C-0.03778093 7.31376925 -0.02050713 3.65689442 0 0 Z " fill="#3F2E21" transform="translate(228,232)"/>
<path d="M0 0 C0.33 0 0.66 0 1 0 C1 9.9 1 19.8 1 30 C1.99 30 2.98 30 4 30 C4.33 24.39 4.66 18.78 5 13 C5.33 13 5.66 13 6 13 C6 18.94 6 24.88 6 31 C4.35 31.33 2.7 31.66 1 32 C0 31 0 31 -0.11352539 28.04077148 C-0.10828857 26.74727783 -0.10305176 25.45378418 -0.09765625 24.12109375 C-0.0962413 23.4344313 -0.09482635 22.74776886 -0.09336853 22.04029846 C-0.08775479 19.83932199 -0.07520007 17.63844591 -0.0625 15.4375 C-0.05748676 13.94856917 -0.05292355 12.45963676 -0.04882812 10.97070312 C-0.03778093 7.31376925 -0.02050713 3.65689442 0 0 Z " fill="#6C523B" transform="translate(201,232)"/>
<path d="M0 0 C1.31733257 3.67282789 0.6062447 5.99032434 -0.4375 9.6875 C-2.99124858 20.61057915 -2.25603084 31.85281107 -2 43 C-2.33 43 -2.66 43 -3 43 C-5.3927964 28.5081444 -4.65587661 13.96762983 0 0 Z " fill="#60462E" transform="translate(66,94)"/>
<path d="M0 0 C1.1875 1.875 1.1875 1.875 0.875 4.5625 C0.648125 5.325625 0.42125 6.08875 0.1875 6.875 C-1.7925 6.875 -3.7725 6.875 -5.8125 6.875 C-5.8125 4.565 -5.8125 2.255 -5.8125 -0.125 C-2.32974138 -1.44604637 -2.32974138 -1.44604637 0 0 Z " fill="#6A5036" transform="translate(233.8125,220.125)"/>
<path d="M0 0 C0.33 0.99 0.66 1.98 1 3 C-3 7 -7 11 -11 15 C-11.66 14.67 -12.32 14.34 -13 14 C-11.77801556 12.41111701 -10.54705525 10.82913536 -9.3125 9.25 C-8.28576172 7.92742188 -8.28576172 7.92742188 -7.23828125 6.578125 C-5.01538057 4.01771584 -2.70749594 2.02943654 0 0 Z " fill="#77593E" transform="translate(93,55)"/>
<path d="M0 0 C-0.33 0.99 -0.66 1.98 -1 3 C-3.97 3 -6.94 3 -10 3 C-10 2.34 -10 1.68 -10 1 C-6.78548731 -0.60725635 -3.56387464 -0.05748185 0 0 Z " fill="#A27950" transform="translate(177,271)"/>
<path d="M0 0 C2.8125 -0.3125 2.8125 -0.3125 6 0 C7.875 2.5 7.875 2.5 9 5 C8.401875 4.690625 7.80375 4.38125 7.1875 4.0625 C4.91043228 2.89790296 4.91043228 2.89790296 2 2 C1.67 2.66 1.34 3.32 1 4 C0.67 2.68 0.34 1.36 0 0 Z " fill="#6B4F37" transform="translate(157,265)"/>
<path d="M0 0 C-1.04874998 2.62187494 -1.64931313 3.79371361 -4.125 5.25 C-4.74375 5.4975 -5.3625 5.745 -6 6 C-3.84615385 0 -3.84615385 0 0 0 Z " fill="#775A3C" transform="translate(165,232)"/>
</svg>
